<svg width="17" height="16" viewBox="0 0 17 16" fill="none" xmlns="http://www.w3.org/2000/svg">
<path d="M3.57667 13.3332C3.27 13.3332 3.014 13.2305 2.80867 13.0252C2.60289 12.8194 2.5 12.5632 2.5 12.2565V5.74317C2.5 5.4365 2.60289 5.1805 2.80867 4.97517C3.014 4.76939 3.27 4.6665 3.57667 4.6665H6.5V3.74317C6.5 3.4365 6.60289 3.1805 6.80867 2.97517C7.014 2.76939 7.27 2.6665 7.57667 2.6665H9.42333C9.73 2.6665 9.98622 2.76939 10.192 2.97517C10.3973 3.1805 10.5 3.4365 10.5 3.74317V4.6665H13.4233C13.73 4.6665 13.986 4.76939 14.1913 4.97517C14.3971 5.1805 14.5 5.4365 14.5 5.74317V12.2565C14.5 12.5632 14.3973 12.8192 14.192 13.0245C13.9862 13.2303 13.73 13.3332 13.4233 13.3332H3.57667ZM7.16667 4.6665H9.83333V3.74317C9.83333 3.64095 9.79067 3.54695 9.70533 3.46117C9.61956 3.37584 9.52556 3.33317 9.42333 3.33317H7.57667C7.47444 3.33317 7.38045 3.37584 7.29467 3.46117C7.20933 3.54695 7.16667 3.64095 7.16667 3.74317V4.6665Z" fill="#FF0028"/>
</svg>
