<svg width="16" height="16" viewBox="0 0 16 16" fill="none" xmlns="http://www.w3.org/2000/svg">
<path d="M5.16665 1.66675C5.16665 1.53414 5.11397 1.40696 5.02021 1.31319C4.92644 1.21943 4.79926 1.16675 4.66665 1.16675C4.53404 1.16675 4.40687 1.21943 4.3131 1.31319C4.21933 1.40696 4.16665 1.53414 4.16665 1.66675V2.72008C3.20665 2.79675 2.57732 2.98475 2.11465 3.44808C1.65132 3.91075 1.46332 4.54075 1.38599 5.50008H14.614C14.5367 4.54008 14.3487 3.91075 13.8853 3.44808C13.4227 2.98475 12.7927 2.79675 11.8333 2.71941V1.66675C11.8333 1.53414 11.7806 1.40696 11.6869 1.31319C11.5931 1.21943 11.4659 1.16675 11.3333 1.16675C11.2007 1.16675 11.0735 1.21943 10.9798 1.31319C10.886 1.40696 10.8333 1.53414 10.8333 1.66675V2.67541C10.39 2.66675 9.89265 2.66675 9.33332 2.66675H6.66665C6.10732 2.66675 5.60999 2.66675 5.16665 2.67541V1.66675Z" fill="#FF0028"/>
<path fill-rule="evenodd" clip-rule="evenodd" d="M14.6667 8C14.6667 7.44067 14.6667 6.94333 14.658 6.5H1.34204C1.33337 6.94333 1.33337 7.44067 1.33337 8V9.33333C1.33337 11.8473 1.33337 13.1047 2.11471 13.8853C2.89537 14.6667 4.15271 14.6667 6.66671 14.6667H9.33337C11.8474 14.6667 13.1047 14.6667 13.8854 13.8853C14.6667 13.1047 14.6667 11.8473 14.6667 9.33333V8ZM9.33337 8.16667C9.02395 8.16667 8.72721 8.28958 8.50842 8.50838C8.28962 8.72717 8.16671 9.02391 8.16671 9.33333V10.6667C8.16671 10.9761 8.28962 11.2728 8.50842 11.4916C8.72721 11.7104 9.02395 11.8333 9.33337 11.8333C9.64279 11.8333 9.93954 11.7104 10.1583 11.4916C10.3771 11.2728 10.5 10.9761 10.5 10.6667V9.33333C10.5 9.02391 10.3771 8.72717 10.1583 8.50838C9.93954 8.28958 9.64279 8.16667 9.33337 8.16667ZM9.33337 9.16667C9.28917 9.16667 9.24678 9.18423 9.21552 9.21548C9.18427 9.24674 9.16671 9.28913 9.16671 9.33333V10.6667C9.16671 10.7109 9.18427 10.7533 9.21552 10.7845C9.24678 10.8158 9.28917 10.8333 9.33337 10.8333C9.37758 10.8333 9.41997 10.8158 9.45122 10.7845C9.48248 10.7533 9.50004 10.7109 9.50004 10.6667V9.33333C9.50004 9.28913 9.48248 9.24674 9.45122 9.21548C9.41997 9.18423 9.37758 9.16667 9.33337 9.16667ZM7.19137 8.20467C7.28275 8.24251 7.36085 8.30661 7.41579 8.38884C7.47073 8.47108 7.50005 8.56776 7.50004 8.66667V11.3333C7.50004 11.4659 7.44736 11.5931 7.35359 11.6869C7.25983 11.7807 7.13265 11.8333 7.00004 11.8333C6.86743 11.8333 6.74026 11.7807 6.64649 11.6869C6.55272 11.5931 6.50004 11.4659 6.50004 11.3333V9.87333L6.35337 10.02C6.25859 10.1083 6.13323 10.1564 6.00369 10.1541C5.87416 10.1518 5.75057 10.0994 5.65896 10.0077C5.56735 9.91614 5.51488 9.79255 5.51259 9.66301C5.5103 9.53348 5.55839 9.40812 5.64671 9.31333L6.64671 8.31333C6.71658 8.24341 6.80562 8.19576 6.90256 8.17642C6.99951 8.15708 7.10001 8.16691 7.19137 8.20467Z" fill="#FF0028"/>
</svg>
