<svg width="50" height="38" viewBox="0 0 50 38" fill="none" xmlns="http://www.w3.org/2000/svg">
<path fill-rule="evenodd" clip-rule="evenodd" d="M6.619 4.1083C5.74534 4.1083 4.90747 4.45535 4.2897 5.07312C3.67194 5.69089 3.32488 6.52876 3.32488 7.40241V30.4612C3.32488 31.3349 3.67194 32.1728 4.2897 32.7905C4.90747 33.4083 5.74534 33.7554 6.619 33.7554H42.8543C43.7279 33.7554 44.5658 33.4083 45.1836 32.7905C45.8014 32.1728 46.1484 31.3349 46.1484 30.4612V7.40241C46.1484 6.52876 45.8014 5.69089 45.1836 5.07312C44.5658 4.45535 43.7279 4.1083 42.8543 4.1083H6.619ZM0.0307617 7.40241C0.0307617 5.65511 0.724877 3.97936 1.96041 2.74383C3.19595 1.50829 4.87169 0.814178 6.619 0.814178H42.8543C44.6016 0.814178 46.2773 1.50829 47.5129 2.74383C48.7484 3.97936 49.4425 5.65511 49.4425 7.40241V30.4612C49.4425 32.2085 48.7484 33.8843 47.5129 35.1198C46.2773 36.3554 44.6016 37.0495 42.8543 37.0495H6.619C4.87169 37.0495 3.19595 36.3554 1.96041 35.1198C0.724877 33.8843 0.0307617 32.2085 0.0307617 30.4612V7.40241ZM6.619 8.22594C6.619 8.00753 6.70576 7.79806 6.8602 7.64362C7.01465 7.48918 7.22411 7.40241 7.44253 7.40241H15.6778C15.8962 7.40241 16.1057 7.48918 16.2601 7.64362C16.4146 7.79806 16.5014 8.00753 16.5014 8.22594V13.1836C16.5014 13.402 16.4146 13.6115 16.2601 13.7659C16.1057 13.9204 15.8962 14.0071 15.6778 14.0071H7.44253C7.22411 14.0071 7.01465 13.9204 6.8602 13.7659C6.70576 13.6115 6.619 13.402 6.619 13.1836V8.22594ZM39.8929 19.2085C39.8929 21.4809 38.9902 23.6602 37.3834 25.267C35.7766 26.8738 33.5973 27.7765 31.3249 27.7765C29.0525 27.7765 26.8732 26.8738 25.2664 25.267C23.6596 23.6602 22.7569 21.4809 22.7569 19.2085C22.7569 16.9362 23.6596 14.7569 25.2664 13.15C26.8732 11.5432 29.0525 10.6405 31.3249 10.6405C33.5973 10.6405 35.7766 11.5432 37.3834 13.15C38.9902 14.7569 39.8929 16.9362 39.8929 19.2085ZM43.187 19.2085C43.187 22.3546 41.9372 25.3717 39.7127 27.5963C37.4881 29.8209 34.4709 31.0707 31.3249 31.0707C28.1789 31.0707 25.1617 29.8209 22.9371 27.5963C20.7125 25.3717 19.4628 22.3546 19.4628 19.2085C19.4628 16.0625 20.7125 13.0453 22.9371 10.8207C25.1617 8.59617 28.1789 7.34641 31.3249 7.34641C34.4709 7.34641 37.4881 8.59617 39.7127 10.8207C41.9372 13.0453 43.187 16.0625 43.187 19.2085Z" fill="#FF0028"/>
</svg>
