<svg width="16" height="16" viewBox="0 0 16 16" fill="none" xmlns="http://www.w3.org/2000/svg">
<path d="M4.64 9.7559V4.7959H1.6C0.72 4.7959 0 5.5159 0 6.3959V11.1959C0 12.0759 0.72 12.7959 1.6 12.7959H2.4V15.1959L4.8 12.7959H8.8C9.68 12.7959 10.4 12.0759 10.4 11.1959V9.7399C10.3474 9.75119 10.2938 9.75682 10.24 9.7567H4.64V9.7559ZM14.4 0.795898H7.2C6.32 0.795898 5.6 1.5159 5.6 2.3959V8.7959H11.2L13.6 11.1959V8.7959H14.4C15.28 8.7959 16 8.0767 16 7.1959V2.3959C16 1.5159 15.28 0.795898 14.4 0.795898Z" fill="#FF0028"/>
</svg>
