<svg width="19" height="20" viewBox="0 0 19 20" fill="none" xmlns="http://www.w3.org/2000/svg">
<path d="M6.23095 12.9001H14.9065L12.0886 8.82684L9.80326 12.0426L8.29446 9.97022L6.23095 12.9001ZM4.34495 17.1164C3.98994 17.1164 3.67931 16.9734 3.41305 16.6876C3.14679 16.4017 3.01366 16.0683 3.01366 15.6871V2.34768C3.01366 1.96656 3.14679 1.63307 3.41305 1.34722C3.67931 1.06138 3.98994 0.918457 4.34495 0.918457H16.7704C17.1254 0.918457 17.436 1.06138 17.7023 1.34722C17.9685 1.63307 18.1017 1.96656 18.1017 2.34768V15.6871C18.1017 16.0683 17.9685 16.4017 17.7023 16.6876C17.436 16.9734 17.1254 17.1164 16.7704 17.1164H4.34495ZM4.34495 15.6871H16.7704V2.34768H4.34495V15.6871ZM1.68237 19.9748C1.32736 19.9748 1.01672 19.8319 0.750462 19.546C0.484204 19.2602 0.351074 18.9267 0.351074 18.5456V3.77691H1.68237V18.5456H15.4391V19.9748H1.68237Z" fill="#333333" fill-opacity="0.5"/>
</svg>
