<svg width="17" height="17" viewBox="0 0 17 17" fill="none" xmlns="http://www.w3.org/2000/svg">
<path d="M8.68517 11.8624C8.83273 11.8624 8.95717 11.8117 9.0585 11.7104C9.15939 11.6082 9.20984 11.4837 9.20984 11.3371C9.20984 11.1895 9.15895 11.0651 9.05717 10.9637C8.95539 10.8624 8.83095 10.8117 8.68384 10.8117C8.53628 10.8117 8.41184 10.8626 8.3105 10.9644C8.20917 11.0662 8.1585 11.1906 8.1585 11.3377C8.1585 11.4853 8.20962 11.6097 8.31184 11.7111C8.41317 11.8124 8.53762 11.8631 8.68517 11.8631M8.34117 9.65507H8.9845C9.00139 9.36529 9.05584 9.12973 9.14784 8.9484C9.23984 8.76751 9.42895 8.5364 9.71517 8.25507C10.0129 7.95773 10.2343 7.69129 10.3792 7.45573C10.5245 7.22018 10.5972 6.94773 10.5972 6.6384C10.5972 6.11307 10.4127 5.6944 10.0438 5.3824C9.6745 5.0704 9.23762 4.9144 8.73317 4.9144C8.25362 4.9144 7.8465 5.04462 7.51184 5.30507C7.17717 5.56595 6.93206 5.86551 6.7765 6.20373L7.38984 6.45773C7.4965 6.21507 7.64917 6.00062 7.84784 5.8144C8.0465 5.62773 8.33317 5.5344 8.70784 5.5344C9.14028 5.5344 9.45584 5.65307 9.6545 5.8904C9.85406 6.12773 9.95384 6.38862 9.95384 6.67307C9.95384 6.90418 9.89139 7.1104 9.7665 7.29173C9.64206 7.47351 9.47984 7.65618 9.27984 7.83973C8.89317 8.19618 8.63984 8.4984 8.51984 8.7464C8.40073 8.99395 8.34117 9.29684 8.34117 9.65507ZM8.6685 14.3757C7.83917 14.3757 7.05917 14.2184 6.3285 13.9037C5.59828 13.5886 4.96295 13.1611 4.4225 12.6211C3.88206 12.0815 3.45428 11.4468 3.13917 10.7171C2.82406 9.98729 2.6665 9.20751 2.6665 8.37773C2.6665 7.5484 2.82384 6.7684 3.1385 6.03773C3.45362 5.30751 3.88117 4.67218 4.42117 4.13173C4.96073 3.59129 5.59539 3.16351 6.32517 2.8484C7.05495 2.53329 7.83473 2.37573 8.6645 2.37573C9.49384 2.37573 10.2738 2.53307 11.0045 2.84773C11.7347 3.16284 12.3701 3.5904 12.9105 4.1304C13.4509 4.66995 13.8787 5.30462 14.1938 6.0344C14.5089 6.76418 14.6665 7.54395 14.6665 8.37373C14.6665 9.20307 14.5092 9.98307 14.1945 10.7137C13.8794 11.444 13.4518 12.0793 12.9118 12.6197C12.3723 13.1602 11.7376 13.588 11.0078 13.9031C10.2781 14.2182 9.49828 14.3757 8.6685 14.3757Z" fill="#FF0028"/>
</svg>
