<svg width="13" height="13" viewBox="0 0 13 13" fill="none" xmlns="http://www.w3.org/2000/svg">
<mask id="mask0_242_1588" style="mask-type:alpha" maskUnits="userSpaceOnUse" x="0" y="0" width="13" height="13">
<rect y="0.378174" width="12.2435" height="12.2435" fill="#D9D9D9"/>
</mask>
<g mask="url(#mask0_242_1588)">
<path d="M3.21784 11.346C2.96424 11.346 2.74715 11.2557 2.56655 11.0751C2.38595 10.8945 2.29565 10.6774 2.29565 10.4238V5.6363C2.29565 5.3827 2.38595 5.1656 2.56655 4.98501C2.74715 4.80441 2.96424 4.71411 3.21784 4.71411H3.82609V3.69382C3.82609 3.0568 4.04944 2.51494 4.49614 2.06824C4.94285 1.62154 5.48471 1.39819 6.12173 1.39819C6.75875 1.39819 7.30061 1.62154 7.74732 2.06824C8.19402 2.51494 8.41737 3.0568 8.41737 3.69382V4.71411H9.02561C9.27921 4.71411 9.49631 4.80441 9.6769 4.98501C9.8575 5.1656 9.9478 5.3827 9.9478 5.6363V10.4238C9.9478 10.6774 9.8575 10.8945 9.6769 11.0751C9.49631 11.2557 9.27921 11.346 9.02561 11.346H3.21784ZM6.12173 8.92278C6.36961 8.92278 6.58037 8.83596 6.754 8.66231C6.92765 8.48868 7.01447 8.27792 7.01447 8.03004C7.01447 7.78216 6.92765 7.5714 6.754 7.39777C6.58037 7.22412 6.36961 7.1373 6.12173 7.1373C5.87385 7.1373 5.66309 7.22412 5.48946 7.39777C5.31581 7.5714 5.22899 7.78216 5.22899 8.03004C5.22899 8.27792 5.31581 8.48868 5.48946 8.66231C5.66309 8.83596 5.87385 8.92278 6.12173 8.92278ZM4.59129 4.71411H7.65216V3.69382C7.65216 3.2687 7.50337 2.90735 7.20579 2.60976C6.9082 2.31218 6.54685 2.16339 6.12173 2.16339C5.69661 2.16339 5.33526 2.31218 5.03767 2.60976C4.74009 2.90735 4.59129 3.2687 4.59129 3.69382V4.71411Z" fill="#5A5A5A"/>
</g>
</svg>
