<svg width="16" height="17" viewBox="0 0 16 17" fill="none" xmlns="http://www.w3.org/2000/svg">
<path fill-rule="evenodd" clip-rule="evenodd" d="M4 1.46851C3.46957 1.46851 2.96086 1.67922 2.58579 2.05429C2.21071 2.42937 2 2.93807 2 3.46851V12.8018C2 13.3323 2.21071 13.841 2.58579 14.2161C2.96086 14.5911 3.46957 14.8018 4 14.8018H8C8.53043 14.8018 9.03914 14.5911 9.41421 14.2161C9.78929 13.841 10 13.3323 10 12.8018V3.46851C10 2.93807 9.78929 2.42937 9.41421 2.05429C9.03914 1.67922 8.53043 1.46851 8 1.46851H4ZM10.862 4.99717C10.987 4.87219 11.1566 4.80198 11.3333 4.80198C11.5101 4.80198 11.6796 4.87219 11.8047 4.99717L14.4713 7.66384C14.5963 7.78886 14.6665 7.9584 14.6665 8.13517C14.6665 8.31195 14.5963 8.48149 14.4713 8.60651L11.8047 11.2732C11.6789 11.3946 11.5105 11.4618 11.3357 11.4603C11.1609 11.4588 10.9937 11.3887 10.8701 11.2651C10.7465 11.1414 10.6764 10.9742 10.6749 10.7994C10.6734 10.6246 10.7406 10.4562 10.862 10.3305L12.3907 8.80184H6.66667C6.48986 8.80184 6.32029 8.7316 6.19526 8.60658C6.07024 8.48155 6 8.31198 6 8.13517C6 7.95836 6.07024 7.78879 6.19526 7.66377C6.32029 7.53874 6.48986 7.46851 6.66667 7.46851H12.3907L10.862 5.93984C10.737 5.81482 10.6668 5.64528 10.6668 5.46851C10.6668 5.29173 10.737 5.12219 10.862 4.99717Z" fill="#FF0028"/>
</svg>
