<svg width="16" height="22" viewBox="0 0 16 22" fill="none" xmlns="http://www.w3.org/2000/svg">
<path d="M0 18.0908V16.0462H2V8.89041C2 7.47628 2.41667 6.21975 3.25 5.12082C4.08333 4.02189 5.16667 3.30205 6.5 2.9613V2.24572C6.5 1.81977 6.64583 1.45772 6.9375 1.15956C7.22917 0.861406 7.58333 0.712326 8 0.712326C8.41667 0.712326 8.77083 0.861406 9.0625 1.15956C9.35417 1.45772 9.5 1.81977 9.5 2.24572V2.9613C10.8333 3.30205 11.9167 4.02189 12.75 5.12082C13.5833 6.21975 14 7.47628 14 8.89041V16.0462H16V18.0908H0ZM8 21.1575C7.45 21.1575 6.97917 20.9573 6.5875 20.557C6.19583 20.1566 6 19.6753 6 19.113H10C10 19.6753 9.80417 20.1566 9.4125 20.557C9.02083 20.9573 8.55 21.1575 8 21.1575Z" fill="#40000A"/>
</svg>
