<svg width="16" height="17" viewBox="0 0 16 17" fill="none" xmlns="http://www.w3.org/2000/svg">
<path d="M7.99984 12.0888C8.35346 12.0888 8.6926 11.9483 8.94265 11.6983C9.19269 11.4482 9.33317 11.1091 9.33317 10.7555C9.33317 10.4018 9.19269 10.0627 8.94265 9.81264C8.6926 9.5626 8.35346 9.42212 7.99984 9.42212C7.64622 9.42212 7.30708 9.5626 7.05703 9.81264C6.80698 10.0627 6.6665 10.4018 6.6665 10.7555C6.6665 11.1091 6.80698 11.4482 7.05703 11.6983C7.30708 11.9483 7.64622 12.0888 7.99984 12.0888ZM11.9998 6.08879C12.3535 6.08879 12.6926 6.22926 12.9426 6.47931C13.1927 6.72936 13.3332 7.0685 13.3332 7.42212V14.0888C13.3332 14.4424 13.1927 14.7815 12.9426 15.0316C12.6926 15.2816 12.3535 15.4221 11.9998 15.4221H3.99984C3.64622 15.4221 3.30708 15.2816 3.05703 15.0316C2.80698 14.7815 2.6665 14.4424 2.6665 14.0888V7.42212C2.6665 7.0685 2.80698 6.72936 3.05703 6.47931C3.30708 6.22926 3.64622 6.08879 3.99984 6.08879H4.6665V4.75545C4.6665 3.8714 5.01769 3.02355 5.64281 2.39843C6.26794 1.77331 7.11578 1.42212 7.99984 1.42212C8.43758 1.42212 8.87103 1.50834 9.27545 1.67585C9.67987 1.84337 10.0473 2.0889 10.3569 2.39843C10.6664 2.70796 10.9119 3.07542 11.0794 3.47984C11.247 3.88426 11.3332 4.31771 11.3332 4.75545V6.08879H11.9998ZM7.99984 2.75545C7.4694 2.75545 6.9607 2.96617 6.58562 3.34124C6.21055 3.71631 5.99984 4.22502 5.99984 4.75545V6.08879H9.99984V4.75545C9.99984 4.22502 9.78912 3.71631 9.41405 3.34124C9.03898 2.96617 8.53027 2.75545 7.99984 2.75545Z" fill="#FF0028"/>
</svg>
