<svg width="58" height="14" viewBox="0 0 58 14" fill="none" xmlns="http://www.w3.org/2000/svg">
<path d="M7.14177 4.12538C6.83917 3.79038 6.48816 3.53268 6.08873 3.35229C5.68929 3.17191 5.26566 3.08171 4.82991 3.08171C4.40628 3.06883 3.99474 3.1719 3.60742 3.36518C3.35323 3.49403 3.12326 3.67441 2.92959 3.89346V3.6873C2.92959 3.58422 2.89328 3.48114 2.83276 3.40383C2.77224 3.32652 2.67541 3.27498 2.56648 3.27498H1.22294C1.12611 3.27498 1.02927 3.31364 0.968754 3.40383C0.896131 3.48114 0.859819 3.58422 0.871923 3.6873V13.3252C0.871923 13.4283 0.908234 13.5313 0.968754 13.6086C1.04138 13.686 1.12611 13.7246 1.22294 13.7246H2.60279C2.69962 13.7246 2.78435 13.686 2.85697 13.6086C2.92959 13.5442 2.97801 13.4411 2.96591 13.3252V10.0266C3.15957 10.2586 3.41375 10.4261 3.69214 10.5292C4.05526 10.6709 4.43048 10.7482 4.81781 10.7482C5.25355 10.7482 5.68929 10.658 6.08873 10.4776C6.48816 10.2972 6.85127 10.0395 7.15387 9.70453C7.46858 9.35664 7.71065 8.94432 7.88011 8.49335C8.07377 7.99084 8.1585 7.44968 8.1464 6.90851C8.1585 6.36735 8.06167 5.82618 7.88011 5.31079C7.69855 4.88559 7.45647 4.47328 7.14177 4.12538ZM5.90717 7.61718C5.83454 7.82334 5.72561 8.00373 5.58036 8.17123C5.30197 8.49335 4.90254 8.67374 4.491 8.67374C4.28524 8.67374 4.07947 8.63508 3.88581 8.532C3.70425 8.44181 3.53479 8.32585 3.38954 8.17123C3.2443 8.01661 3.13536 7.82334 3.06274 7.61718C2.90539 7.1791 2.90539 6.70236 3.06274 6.26427C3.13536 6.05811 3.2564 5.87772 3.38954 5.72311C3.53479 5.56849 3.70425 5.43964 3.88581 5.34945C4.07947 5.25925 4.28524 5.20771 4.491 5.20771C4.70887 5.20771 4.90254 5.24637 5.10831 5.34945C5.28986 5.43964 5.45932 5.5556 5.59246 5.71022C5.73771 5.86484 5.83454 6.04523 5.91927 6.25139C6.06452 6.70236 6.05241 7.1791 5.90717 7.61718ZM15.5419 3.28787H14.1742C14.0773 3.28787 13.9805 3.32652 13.92 3.40383C13.8474 3.48114 13.811 3.58422 13.811 3.70018V3.88057C13.6416 3.66153 13.4237 3.49403 13.1937 3.37806C12.8185 3.18479 12.407 3.0946 11.9955 3.0946C11.1119 3.0946 10.2767 3.46826 9.64729 4.12538C9.32048 4.47328 9.0663 4.88559 8.89684 5.33656C8.70318 5.83907 8.60635 6.38023 8.61845 6.93428C8.60635 7.47545 8.70318 8.01661 8.89684 8.532C9.0784 8.98297 9.32048 9.39529 9.64729 9.74318C10.2646 10.4132 11.1119 10.7869 11.9833 10.7869C12.3949 10.7997 12.8064 10.6967 13.1816 10.5034C13.4116 10.3745 13.6416 10.207 13.811 10.0009V10.1942C13.811 10.2972 13.8474 10.4003 13.92 10.4776C13.9926 10.542 14.0773 10.5936 14.1742 10.5936H15.5419C15.6387 10.5936 15.7356 10.5549 15.7961 10.4776C15.8687 10.4003 15.905 10.2972 15.905 10.1942V3.71307C15.905 3.60999 15.8687 3.50691 15.8082 3.4296C15.7356 3.33941 15.6387 3.28787 15.5419 3.28787ZM13.69 7.61718C13.6174 7.82334 13.5084 8.00373 13.3632 8.17123C13.218 8.32585 13.0606 8.4547 12.879 8.54489C12.4917 8.73816 12.0439 8.73816 11.6565 8.54489C11.475 8.4547 11.3055 8.32585 11.1603 8.17123C11.015 8.01661 10.9061 7.82334 10.8335 7.61718C10.6882 7.1791 10.6882 6.70236 10.8335 6.26427C10.9061 6.05811 11.015 5.89061 11.1603 5.72311C11.3055 5.56849 11.4629 5.43964 11.6565 5.34945C12.0439 5.15617 12.4917 5.15617 12.8669 5.34945C13.0485 5.43964 13.218 5.5556 13.3511 5.71022C13.4842 5.86484 13.5932 6.04523 13.6779 6.25139C13.8474 6.70236 13.8474 7.1791 13.69 7.61718ZM29.171 6.74101C28.9773 6.56062 28.7473 6.406 28.5052 6.30292C28.2511 6.18696 27.9727 6.10965 27.7064 6.04523L26.6654 5.82618C26.3992 5.77464 26.2055 5.69734 26.1087 5.60714C26.0239 5.54272 25.9634 5.43964 25.9634 5.32367C25.9634 5.20771 26.0239 5.10463 26.1571 5.01444C26.3386 4.91136 26.5323 4.85982 26.7381 4.8727C27.0044 4.8727 27.2706 4.93713 27.5127 5.04021C27.7548 5.15617 27.9848 5.27214 28.2026 5.42676C28.5052 5.63291 28.7715 5.59426 28.9531 5.36233L29.4494 4.75674C29.5462 4.65366 29.5946 4.52482 29.6067 4.38308C29.5946 4.22846 29.522 4.09961 29.413 3.99654C29.2073 3.80326 28.8684 3.5971 28.4205 3.39095C27.9727 3.18479 27.4038 3.08171 26.7381 3.08171C26.3265 3.06883 25.9271 3.13325 25.5398 3.2621C25.213 3.37806 24.8983 3.54557 24.6199 3.76461C24.3657 3.97077 24.172 4.22846 24.0268 4.5377C23.8936 4.83405 23.821 5.15617 23.821 5.47829C23.821 6.08388 23.9905 6.57351 24.3294 6.93428C24.6683 7.29506 25.1161 7.53987 25.6729 7.65584L26.7623 7.91353C26.9922 7.95219 27.2343 8.02949 27.4522 8.14546C27.5732 8.197 27.6459 8.32585 27.6459 8.46758C27.6459 8.59643 27.5853 8.71239 27.4522 8.81547C27.3191 8.91855 27.1012 8.98297 26.8107 8.98297C26.5202 8.98297 26.2176 8.91855 25.9513 8.77682C25.6971 8.64797 25.4671 8.48046 25.2493 8.28719C25.1524 8.20988 25.0556 8.14546 24.9346 8.09392C24.8135 8.05526 24.6562 8.09392 24.4988 8.23565L23.9057 8.71239C23.7363 8.84124 23.6516 9.06028 23.7 9.26644C23.7363 9.48549 23.8936 9.69164 24.1962 9.93646C24.9467 10.4776 25.8424 10.7611 26.7502 10.7353C27.1738 10.7353 27.5974 10.6838 27.9969 10.5549C28.3479 10.439 28.6747 10.2715 28.9652 10.0395C29.2315 9.83338 29.4494 9.56279 29.5946 9.24067C29.7398 8.93143 29.8125 8.59643 29.8125 8.24854C29.8246 7.9393 29.7641 7.63007 29.643 7.3466C29.522 7.14044 29.3646 6.9214 29.171 6.74101ZM35.1503 8.50624C35.0898 8.39027 34.9809 8.31296 34.8477 8.28719C34.7267 8.28719 34.5935 8.32585 34.4967 8.40316C34.3272 8.51912 34.1336 8.58354 33.9399 8.59643C33.8794 8.59643 33.8068 8.58355 33.7463 8.57066C33.6736 8.55778 33.6131 8.51912 33.5647 8.46758C33.5042 8.40316 33.4558 8.32585 33.4194 8.24854C33.371 8.11969 33.3468 7.99084 33.3589 7.86199V5.2206H35.1261C35.235 5.2206 35.3319 5.16906 35.4045 5.09175C35.4771 5.01444 35.5255 4.92424 35.5255 4.80828V3.6873C35.5255 3.57133 35.4892 3.46826 35.4045 3.40383C35.3319 3.32652 35.235 3.28787 35.1382 3.28787H33.3589V1.48399C33.3589 1.38091 33.3226 1.26494 33.25 1.20052C33.1774 1.1361 33.0926 1.09744 32.9958 1.08456H31.616C31.5191 1.08456 31.4223 1.12321 31.3497 1.20052C31.277 1.27783 31.2286 1.38091 31.2286 1.48399V3.28787H30.4419C30.345 3.28787 30.2482 3.32652 30.1756 3.41672C30.1151 3.49403 30.0788 3.59711 30.0788 3.70018V4.82117C30.0788 4.92424 30.1151 5.02733 30.1756 5.10463C30.2361 5.19483 30.3329 5.23348 30.4419 5.23348H31.2286V8.37739C31.2165 8.75105 31.2892 9.12471 31.4344 9.45971C31.5675 9.74318 31.737 9.988 31.967 10.1942C32.1848 10.3874 32.439 10.5292 32.7174 10.6065C32.9958 10.6967 33.2863 10.7482 33.5768 10.7482C33.952 10.7482 34.3393 10.6838 34.7025 10.5549C35.0414 10.439 35.344 10.2328 35.5861 9.96222C35.7434 9.79472 35.7555 9.52414 35.6345 9.33087L35.1503 8.50624ZM42.6306 3.28787H41.2628C41.166 3.28787 41.0812 3.32652 41.0086 3.40383C40.936 3.48114 40.8997 3.58422 40.8997 3.70018V3.88057C40.7302 3.66153 40.5245 3.49403 40.2824 3.37806C39.9072 3.18479 39.4956 3.0946 39.0841 3.0946C38.2005 3.0946 37.3653 3.46826 36.7359 4.12538C36.4091 4.47328 36.1549 4.88559 35.9855 5.33656C35.7918 5.83907 35.695 6.38023 35.7071 6.9214C35.695 7.46256 35.7918 8.00373 35.9855 8.51912C36.1549 8.97009 36.4212 9.38241 36.7359 9.7303C37.3532 10.4003 38.1884 10.774 39.072 10.774C39.4835 10.7869 39.8951 10.6838 40.2703 10.5034C40.5124 10.3745 40.7302 10.207 40.8997 10.0009V10.1942C40.8997 10.2972 40.936 10.4003 41.0086 10.4647C41.0812 10.542 41.166 10.5807 41.2628 10.5807H42.6306C42.8363 10.5807 42.9937 10.4132 42.9937 10.1942V3.71307C42.9937 3.60999 42.9574 3.50691 42.8968 3.4296C42.8363 3.33941 42.7395 3.28787 42.6306 3.28787ZM40.7907 7.61718C40.7181 7.82334 40.6092 8.00373 40.4639 8.17123C40.3187 8.32585 40.1613 8.4547 39.9798 8.54489C39.7861 8.63508 39.5804 8.68662 39.3625 8.68662C39.1446 8.68662 38.951 8.63508 38.7573 8.54489C38.5757 8.4547 38.4063 8.32585 38.261 8.17123C38.1158 8.01661 38.0068 7.82334 37.9463 7.61718C37.8011 7.1791 37.8011 6.70236 37.9463 6.26427C38.0189 6.05811 38.1279 5.87772 38.261 5.72311C38.4063 5.56849 38.5757 5.43964 38.7573 5.34945C38.951 5.25925 39.1567 5.20771 39.3625 5.20771C39.5683 5.20771 39.774 5.24637 39.9798 5.34945C40.1613 5.43964 40.3187 5.5556 40.4639 5.71022C40.6092 5.86484 40.7181 6.04523 40.7907 6.25139C40.9481 6.68947 40.9481 7.1791 40.7907 7.61718ZM50.135 8.40316L49.3482 7.75891C49.203 7.63006 49.0578 7.59141 48.9367 7.64295C48.8278 7.69449 48.7309 7.7718 48.6462 7.86199C48.4768 8.08104 48.271 8.27431 48.0531 8.44181C47.811 8.58355 47.5569 8.66085 47.2906 8.63509C46.9759 8.63509 46.6854 8.54489 46.4312 8.35162C46.177 8.15834 45.9833 7.90065 45.8865 7.57853C45.8139 7.35948 45.7776 7.14044 45.7776 6.9214C45.7776 6.68947 45.8139 6.47043 45.8865 6.2385C45.9591 6.03234 46.056 5.85195 46.2012 5.69733C46.3465 5.54272 46.5038 5.41387 46.6854 5.33656C46.879 5.24637 47.0848 5.19483 47.3027 5.19483C47.569 5.18194 47.8352 5.25925 48.0652 5.40098C48.2952 5.5556 48.4889 5.74888 48.6583 5.9808C48.7309 6.071 48.8278 6.14831 48.9367 6.19985C49.0578 6.25139 49.203 6.21273 49.3482 6.08388L50.135 5.45252C50.2318 5.3881 50.3045 5.28502 50.3408 5.16906C50.3892 5.04021 50.3771 4.89848 50.3045 4.78251C50.0019 4.28 49.5903 3.86769 49.0941 3.57134C48.5736 3.2621 47.9563 3.0946 47.2664 3.0946C46.7822 3.0946 46.298 3.19767 45.8381 3.39095C45.4024 3.58422 45.015 3.8548 44.6882 4.20269C44.3614 4.55058 44.0951 4.9629 43.9136 5.42676C43.5383 6.39312 43.5383 7.47545 43.9136 8.44181C44.0951 8.89278 44.3493 9.31798 44.6882 9.65299C45.3781 10.3745 46.298 10.7611 47.2664 10.7611C47.9563 10.7611 48.5736 10.5936 49.0941 10.2843C49.5903 9.98799 50.014 9.57568 50.3166 9.06028C50.3771 8.94432 50.3892 8.80259 50.3529 8.68662C50.3045 8.58354 50.2318 8.48046 50.135 8.40316ZM57.4216 9.91069L55.255 6.53485L57.1069 3.93211C57.1916 3.81615 57.2279 3.64864 57.1795 3.50691C57.1432 3.40383 57.0585 3.30075 56.8285 3.30075H55.3639C55.2792 3.30075 55.1945 3.32652 55.1218 3.36518C55.025 3.41672 54.9524 3.49402 54.904 3.58422L53.4273 5.78753H53.0763V0.582049C53.0763 0.47897 53.0399 0.375889 52.9673 0.29858C52.8947 0.221271 52.81 0.182617 52.7131 0.182617H51.3454C51.2486 0.182617 51.1517 0.221271 51.0791 0.29858C51.0065 0.375889 50.9702 0.466085 50.9702 0.582049V10.1813C50.9702 10.2972 51.0065 10.3874 51.0791 10.4647C51.1517 10.542 51.2486 10.5807 51.3454 10.5807H52.7131C52.81 10.5807 52.9068 10.542 52.9673 10.4647C53.0399 10.3874 53.0763 10.2843 53.0763 10.1813V7.64295H53.4636L55.0734 10.2715C55.1702 10.4647 55.3518 10.5807 55.5455 10.5807H57.0827C57.3126 10.5807 57.4095 10.4647 57.4579 10.3617C57.5184 10.207 57.5063 10.0395 57.4216 9.91069ZM23.3126 3.28787H21.7754C21.6544 3.28787 21.5455 3.32652 21.4607 3.41672C21.3881 3.49403 21.3397 3.58422 21.3155 3.6873L20.1777 8.17123H19.8993L18.6889 3.6873C18.6647 3.5971 18.6284 3.50691 18.5679 3.41672C18.4953 3.32652 18.3984 3.27498 18.2895 3.27498H16.7281C16.5223 3.27498 16.4013 3.33941 16.3408 3.49403C16.3045 3.62287 16.3045 3.76461 16.3408 3.89346L18.2774 10.207C18.3137 10.2972 18.35 10.4003 18.4227 10.4647C18.4953 10.542 18.6042 10.5807 18.7131 10.5807H19.5362L19.4636 10.7869L19.282 11.3667C19.2215 11.5471 19.1247 11.7017 18.9794 11.8176C18.8463 11.9207 18.6889 11.9851 18.5195 11.9723C18.3742 11.9723 18.2411 11.9336 18.1079 11.8821C17.9748 11.8176 17.8538 11.7403 17.7448 11.6501C17.648 11.5728 17.527 11.5342 17.3938 11.5342H17.3817C17.2365 11.5471 17.1033 11.6244 17.0307 11.7661L16.5465 12.5263C16.3529 12.8613 16.4618 13.0675 16.5829 13.1834C16.8491 13.4411 17.1517 13.6344 17.4906 13.7504C17.8659 13.8921 18.2532 13.9565 18.6405 13.9565C19.3426 13.9565 19.9235 13.7504 20.3714 13.3509C20.8313 12.9129 21.1824 12.3459 21.3518 11.7017L23.6031 3.89346C23.6516 3.75172 23.6637 3.60999 23.6152 3.48114C23.6031 3.39095 23.5184 3.28787 23.3126 3.28787Z" fill="#5A5A5A"/>
</svg>
