<svg width="24" height="24" viewBox="0 0 24 24" fill="none" xmlns="http://www.w3.org/2000/svg">
<mask id="mask0_238_798" style="mask-type:alpha" maskUnits="userSpaceOnUse" x="0" y="0" width="24" height="24">
<rect width="24" height="24" fill="#D9D9D9"/>
</mask>
<g mask="url(#mask0_238_798)">
<path d="M12 12.9127C10.9 12.9127 9.95833 12.5123 9.175 11.7115C8.39167 10.9107 8 9.94812 8 8.82363C8 7.69914 8.39167 6.73652 9.175 5.93574C9.95833 5.13497 10.9 4.73459 12 4.73459C13.1 4.73459 14.0417 5.13497 14.825 5.93574C15.6083 6.73652 16 7.69914 16 8.82363C16 9.94812 15.6083 10.9107 14.825 11.7115C14.0417 12.5123 13.1 12.9127 12 12.9127ZM4 21.0908V18.2284C4 17.6491 4.14583 17.1167 4.4375 16.6311C4.72917 16.1456 5.11667 15.775 5.6 15.5194C6.63333 14.9913 7.68333 14.5951 8.75 14.3311C9.81667 14.067 10.9 13.9349 12 13.9349C13.1 13.9349 14.1833 14.067 15.25 14.3311C16.3167 14.5951 17.3667 14.9913 18.4 15.5194C18.8833 15.775 19.2708 16.1456 19.5625 16.6311C19.8542 17.1167 20 17.6491 20 18.2284V21.0908H4Z" fill="#40000A"/>
</g>
</svg>
