<svg width="18" height="18" viewBox="0 0 18 18" fill="none" xmlns="http://www.w3.org/2000/svg">
<path d="M13.3538 12.1625L15.8517 9.66454C16.3397 9.16001 16.7214 8.58238 16.9969 7.93165C17.2723 7.28094 17.4101 6.60245 17.4101 5.89619C17.4101 4.42092 16.8963 3.16766 15.8688 2.13641C14.8414 1.10516 13.5833 0.589539 12.0947 0.589539C11.3942 0.589539 10.7187 0.727268 10.068 1.00273C9.41722 1.2782 8.83959 1.65991 8.33506 2.14787L5.83714 4.64579L13.3538 12.1625ZM5.89318 17.3875C6.60124 17.3875 7.28002 17.2537 7.92953 16.9861C8.57905 16.7185 9.15728 16.3328 9.66423 15.8291L12.1621 13.3541L4.64548 5.83745L2.17048 8.33537C1.66677 8.84232 1.28112 9.42055 1.01353 10.0701C0.74594 10.7196 0.612144 11.3984 0.612144 12.1064C0.612144 13.5855 1.12255 14.8354 2.14337 15.8562C3.16417 16.877 4.4141 17.3875 5.89318 17.3875Z" fill="#FF0028"/>
</svg>
