<svg width="16" height="16" viewBox="0 0 16 16" fill="none" xmlns="http://www.w3.org/2000/svg">
<path d="M15.5104 0.323921C15.464 0.20833 15.3748 0.115083 15.2614 0.0635785C15.148 0.0120735 15.0191 0.00627626 14.9015 0.0473927C14.7839 0.0885091 14.6867 0.173374 14.6301 0.284331C14.5735 0.395289 14.5619 0.523797 14.5976 0.643121C15.3408 2.77912 13.8656 4.37432 12.7408 5.22872L12.2864 4.57752C12.1336 4.35912 11.792 4.17752 11.5264 4.17432L8.97601 4.18552C8.66445 4.19493 8.36123 4.28836 8.09841 4.45592L0.583208 9.72552C0.408404 9.84853 0.289463 10.0358 0.252428 10.2463C0.215393 10.4568 0.263281 10.6734 0.385608 10.8487L3.80081 15.7351C4.05681 16.0991 4.46561 16.0551 4.83041 15.8007L12.3456 10.5303C12.5616 10.3775 12.8112 10.0479 12.8992 9.79592L13.6976 7.27992C13.7856 7.02872 13.732 6.64552 13.5792 6.42712L13.3024 6.03032C14.8128 4.87272 16.3808 2.82712 15.5104 0.323921ZM12.0136 7.81032C11.8752 7.90723 11.719 7.97592 11.554 8.01244C11.389 8.04897 11.2184 8.05263 11.052 8.02321C10.8856 7.99379 10.7266 7.93187 10.5841 7.84098C10.4416 7.7501 10.3184 7.63203 10.2216 7.49352C10.0256 7.21325 9.94871 6.86663 10.008 6.52976C10.0672 6.19289 10.2577 5.89329 10.5376 5.69672C10.7571 5.54297 11.0191 5.46164 11.287 5.46407C11.5549 5.46651 11.8154 5.55261 12.032 5.71032C11.8144 5.84152 11.6648 5.91832 11.6368 5.93032C11.5376 5.97761 11.4575 6.05717 11.4094 6.15598C11.3614 6.25479 11.3484 6.36698 11.3724 6.47418C11.3965 6.58137 11.4563 6.67721 11.542 6.74598C11.6277 6.81476 11.7341 6.85239 11.844 6.85272C11.9128 6.85272 11.9832 6.83672 12.0496 6.80552C12.2048 6.73192 12.3712 6.64472 12.5448 6.54152C12.5847 6.78157 12.5561 7.02802 12.4621 7.25249C12.3681 7.47696 12.2127 7.67032 12.0136 7.81032Z" fill="#FF0028"/>
</svg>
