<svg width="17" height="18" viewBox="0 0 17 18" fill="none" xmlns="http://www.w3.org/2000/svg">
<path d="M15.3834 17.5032L9.62896 11.6206C9.17225 11.9941 8.64704 12.2898 8.05333 12.5077C7.45961 12.7256 6.82784 12.8345 6.15801 12.8345C4.49865 12.8345 3.09428 12.247 1.94491 11.0721C0.795541 9.89711 0.220856 8.46148 0.220856 6.76519C0.220856 5.06889 0.795541 3.63327 1.94491 2.45831C3.09428 1.28336 4.49865 0.695877 6.15801 0.695877C7.81736 0.695877 9.22173 1.28336 10.3711 2.45831C11.5205 3.63327 12.0952 5.06889 12.0952 6.76519C12.0952 7.44993 11.9886 8.09577 11.7755 8.7027C11.5623 9.30963 11.2731 9.84653 10.9077 10.3134L16.6622 16.196L15.3834 17.5032ZM6.15801 10.967C7.29977 10.967 8.27026 10.5585 9.06949 9.74149C9.86872 8.92446 10.2683 7.93236 10.2683 6.76519C10.2683 5.59801 9.86872 4.60591 9.06949 3.78889C8.27026 2.97187 7.29977 2.56336 6.15801 2.56336C5.01625 2.56336 4.04575 2.97187 3.24652 3.78889C2.44729 4.60591 2.04767 5.59801 2.04767 6.76519C2.04767 7.93236 2.44729 8.92446 3.24652 9.74149C4.04575 10.5585 5.01625 10.967 6.15801 10.967Z" fill="#40000A"/>
</svg>
