<svg width="25" height="25" viewBox="0 0 25 25" fill="none" xmlns="http://www.w3.org/2000/svg">
<path fill-rule="evenodd" clip-rule="evenodd" d="M17.0001 2.57593C16.5246 2.57577 16.0548 2.67995 15.624 2.88112C15.1932 3.08229 14.8117 3.37554 14.5065 3.7402C14.2014 4.10486 13.98 4.53204 13.8579 4.9916C13.7358 5.45116 13.7161 5.93191 13.8001 6.39993L9.07007 9.71193C9.04642 9.72829 9.02371 9.74598 9.00207 9.76493C8.52221 9.38981 7.94659 9.15709 7.34085 9.0933C6.73512 9.02951 6.12365 9.13723 5.57617 9.40416C5.0287 9.67109 4.56725 10.0865 4.24445 10.603C3.92165 11.1195 3.75049 11.7163 3.75049 12.3254C3.75049 12.9345 3.92165 13.5313 4.24445 14.0478C4.56725 14.5644 5.0287 14.9798 5.57617 15.2467C6.12365 15.5136 6.73512 15.6213 7.34085 15.5576C7.94659 15.4938 8.52221 15.261 9.00207 14.8859C9.02368 14.9052 9.04639 14.9232 9.07007 14.9399L13.8001 18.2519C13.6597 19.0347 13.8111 19.8418 14.2258 20.5203C14.6404 21.1989 15.2895 21.702 16.0501 21.9342C16.8106 22.1664 17.63 22.1116 18.3529 21.7803C19.0759 21.449 19.6523 20.8642 19.973 20.1365C20.2937 19.4088 20.3365 18.5887 20.0932 17.8316C19.8499 17.0745 19.3375 16.4328 18.6529 16.0281C17.9684 15.6234 17.1592 15.4837 16.3785 15.6356C15.5979 15.7874 14.9001 16.2201 14.4171 16.8519L9.93807 13.7169C10.1381 13.2949 10.2501 12.8239 10.2501 12.3259C10.2501 11.8279 10.1381 11.3559 9.93807 10.9349L14.4181 7.79893C14.7537 8.2382 15.1957 8.58461 15.7025 8.80541C16.2093 9.02621 16.764 9.1141 17.3142 9.06077C17.8644 9.00743 18.3919 8.81464 18.8469 8.50062C19.3018 8.1866 19.6691 7.76173 19.9141 7.26619C20.1591 6.77065 20.2736 6.22081 20.2469 5.66867C20.2201 5.11653 20.053 4.58034 19.7612 4.1108C19.4695 3.64125 19.0629 3.25388 18.5797 2.9853C18.0965 2.71673 17.5529 2.57583 17.0001 2.57593ZM15.2501 5.82593C15.2501 5.3618 15.4344 4.91668 15.7626 4.58849C16.0908 4.2603 16.5359 4.07593 17.0001 4.07593C17.4642 4.07593 17.9093 4.2603 18.2375 4.58849C18.5657 4.91668 18.7501 5.3618 18.7501 5.82593C18.7501 6.29006 18.5657 6.73518 18.2375 7.06336C17.9093 7.39155 17.4642 7.57593 17.0001 7.57593C16.5359 7.57593 16.0908 7.39155 15.7626 7.06336C15.4344 6.73518 15.2501 6.29006 15.2501 5.82593ZM7.00007 10.5759C6.53594 10.5759 6.09082 10.7603 5.76264 11.0885C5.43445 11.4167 5.25007 11.8618 5.25007 12.3259C5.25007 12.7901 5.43445 13.2352 5.76264 13.5634C6.09082 13.8916 6.53594 14.0759 7.00007 14.0759C7.4642 14.0759 7.90932 13.8916 8.23751 13.5634C8.5657 13.2352 8.75007 12.7901 8.75007 12.3259C8.75007 11.8618 8.5657 11.4167 8.23751 11.0885C7.90932 10.7603 7.4642 10.5759 7.00007 10.5759ZM17.0001 17.0759C16.5359 17.0759 16.0908 17.2603 15.7626 17.5885C15.4344 17.9167 15.2501 18.3618 15.2501 18.8259C15.2501 19.2901 15.4344 19.7352 15.7626 20.0634C16.0908 20.3916 16.5359 20.5759 17.0001 20.5759C17.4642 20.5759 17.9093 20.3916 18.2375 20.0634C18.5657 19.7352 18.7501 19.2901 18.7501 18.8259C18.7501 18.3618 18.5657 17.9167 18.2375 17.5885C17.9093 17.2603 17.4642 17.0759 17.0001 17.0759Z" fill="#FF0028"/>
</svg>
