<svg width="24" height="24" viewBox="0 0 24 24" fill="none" xmlns="http://www.w3.org/2000/svg">
<mask id="mask0_242_431" style="mask-type:alpha" maskUnits="userSpaceOnUse" x="0" y="0" width="24" height="24">
<rect width="24" height="24" fill="#D9D9D9"/>
</mask>
<g mask="url(#mask0_242_431)">
<path d="M6.9436 22.2254C6.40565 22.2254 5.94721 22.0338 5.56825 21.6508C5.18929 21.2677 4.9998 20.8071 4.9998 20.2692C4.9998 19.7312 5.19135 19.2728 5.57443 18.8938C5.95753 18.5149 6.41805 18.3254 6.956 18.3254C7.49395 18.3254 7.95241 18.5169 8.33138 18.9C8.71033 19.2831 8.89981 19.7436 8.89981 20.2816C8.89981 20.8195 8.70826 21.278 8.32518 21.657C7.94208 22.0359 7.48155 22.2254 6.9436 22.2254ZM17.2436 22.2254C16.7057 22.2254 16.2472 22.0338 15.8682 21.6508C15.4893 21.2677 15.2998 20.8071 15.2998 20.2692C15.2998 19.7312 15.4913 19.2728 15.8744 18.8938C16.2575 18.5149 16.7181 18.3254 17.256 18.3254C17.794 18.3254 18.2524 18.5169 18.6314 18.9C19.0103 19.2831 19.1998 19.7436 19.1998 20.2816C19.1998 20.8195 19.0083 21.278 18.6252 21.657C18.2421 22.0359 17.7816 22.2254 17.2436 22.2254ZM4.9248 3.62539H20.3267C20.7012 3.62539 20.9862 3.80039 21.1817 4.15039C21.3771 4.50039 21.3748 4.85039 21.1748 5.20039L17.5498 11.7004C17.3655 12.0353 17.1115 12.3107 16.7878 12.5266C16.4641 12.7425 16.1098 12.8504 15.7248 12.8504H7.9998L6.7498 15.1504H19.2248V16.9754H6.6998C5.93314 16.9754 5.3873 16.7129 5.0623 16.1879C4.7373 15.6629 4.74147 15.0837 5.0748 14.4504L6.6248 11.5504L2.8248 3.47539H0.799805V1.65039H3.9998L4.9248 3.62539Z" fill="#FF0028"/>
</g>
</svg>
