<svg width="22" height="22" viewBox="0 0 22 22" fill="none" xmlns="http://www.w3.org/2000/svg">
<path d="M12.65 22.0001C10.67 22.0001 8.98333 21.3034 7.59 19.9101C6.19667 18.5167 5.5 16.8301 5.5 14.8501V14.2176C3.92333 13.9609 2.6125 13.223 1.5675 12.0038C0.5225 10.7846 0 9.35006 0 7.70006V2.20006C0 1.88839 0.105417 1.62714 0.31625 1.41631C0.527083 1.20548 0.788333 1.10006 1.1 1.10006H3.3C3.3 0.788394 3.40542 0.527144 3.61625 0.316311C3.82708 0.105478 4.08833 6.10352e-05 4.4 6.10352e-05C4.71167 6.10352e-05 4.97292 0.105478 5.18375 0.316311C5.39458 0.527144 5.5 0.788394 5.5 1.10006V3.30006C5.5 3.61173 5.39458 3.87298 5.18375 4.08381C4.97292 4.29464 4.71167 4.40006 4.4 4.40006C4.08833 4.40006 3.82708 4.29464 3.61625 4.08381C3.40542 3.87298 3.3 3.61173 3.3 3.30006H2.2V7.70006C2.2 8.91006 2.63083 9.94589 3.4925 10.8076C4.35417 11.6692 5.39 12.1001 6.6 12.1001C7.81 12.1001 8.84583 11.6692 9.7075 10.8076C10.5692 9.94589 11 8.91006 11 7.70006V3.30006H9.9C9.9 3.61173 9.79458 3.87298 9.58375 4.08381C9.37292 4.29464 9.11167 4.40006 8.8 4.40006C8.48833 4.40006 8.22708 4.29464 8.01625 4.08381C7.80542 3.87298 7.7 3.61173 7.7 3.30006V1.10006C7.7 0.788394 7.80542 0.527144 8.01625 0.316311C8.22708 0.105478 8.48833 6.10352e-05 8.8 6.10352e-05C9.11167 6.10352e-05 9.37292 0.105478 9.58375 0.316311C9.79458 0.527144 9.9 0.788394 9.9 1.10006H12.1C12.4117 1.10006 12.6729 1.20548 12.8838 1.41631C13.0946 1.62714 13.2 1.88839 13.2 2.20006V7.70006C13.2 9.35006 12.6775 10.7846 11.6325 12.0038C10.5875 13.223 9.27667 13.9609 7.7 14.2176V14.8501C7.7 16.2251 8.18125 17.3938 9.14375 18.3563C10.1062 19.3188 11.275 19.8001 12.65 19.8001C14.025 19.8001 15.1938 19.3188 16.1562 18.3563C17.1187 17.3938 17.6 16.2251 17.6 14.8501V13.0076C16.9583 12.7692 16.4312 12.3705 16.0188 11.8113C15.6063 11.2521 15.4 10.6151 15.4 9.90006C15.4 8.98339 15.7208 8.20423 16.3625 7.56256C17.0042 6.92089 17.7833 6.60006 18.7 6.60006C19.6167 6.60006 20.3958 6.92089 21.0375 7.56256C21.6792 8.20423 22 8.98339 22 9.90006C22 10.6151 21.7938 11.2521 21.3813 11.8113C20.9688 12.3705 20.4417 12.7692 19.8 13.0076V14.8501C19.8 16.8301 19.1033 18.5167 17.71 19.9101C16.3167 21.3034 14.63 22.0001 12.65 22.0001Z" fill="#FF0028"/>
</svg>
