<svg width="16" height="17" viewBox="0 0 16 17" fill="none" xmlns="http://www.w3.org/2000/svg">
<path d="M2.6735 4.62272H13.3402V5.95605H2.6735V4.62272ZM4.00683 1.95605H12.0068V3.28939H4.00683V1.95605ZM13.3335 7.28272H2.66683C2.31321 7.28272 1.97407 7.4232 1.72402 7.67325C1.47397 7.92329 1.3335 8.26243 1.3335 8.61605V13.9494C1.3335 14.303 1.47397 14.6421 1.72402 14.8922C1.97407 15.1422 2.31321 15.2827 2.66683 15.2827H13.3335C13.6871 15.2827 14.0263 15.1422 14.2763 14.8922C14.5264 14.6421 14.6668 14.303 14.6668 13.9494V8.61605C14.6668 8.26243 14.5264 7.92329 14.2763 7.67325C14.0263 7.4232 13.6871 7.28272 13.3335 7.28272ZM6.86683 13.9494L4.66683 11.7894L5.60016 10.8561L6.86683 12.1227L10.4002 8.58939L11.3335 9.52272L6.86683 13.9494Z" fill="#FF0028"/>
</svg>
