<svg width="20" height="20" viewBox="0 0 20 20" fill="none" xmlns="http://www.w3.org/2000/svg">
<path d="M8.99998 19.1664H3.49998C2.7361 19.1664 2.08679 18.8991 1.55207 18.3643C1.01735 17.8296 0.749985 17.1803 0.749985 16.4164V14.5831C0.749985 14.3234 0.837832 14.1057 1.01353 13.93C1.18922 13.7543 1.40693 13.6664 1.66665 13.6664H3.49998V2.66643C3.49998 2.16227 3.6795 1.73067 4.03853 1.37164C4.39755 1.01261 4.82915 0.833099 5.33332 0.833099H15.4167C15.9208 0.833099 16.3524 1.01261 16.7114 1.37164C17.0705 1.73067 17.25 2.16227 17.25 2.66643V9.10602C16.9444 9.07546 16.6351 9.08692 16.3219 9.14039C16.0087 9.19386 15.7069 9.28935 15.4167 9.42685V2.66643H5.33332V13.6664H10.8333L9.52707 14.9727C9.35901 15.1407 9.22915 15.3355 9.13748 15.5571C9.04582 15.7786 8.99998 16.0116 8.99998 16.256V19.1664ZM10.8333 18.2498V16.7373C10.8333 16.615 10.8562 16.4928 10.9021 16.3706C10.9479 16.2484 11.0167 16.1491 11.1083 16.0727L15.8979 11.306C16.0354 11.1685 16.1882 11.0692 16.3562 11.0081C16.5243 10.947 16.6923 10.9164 16.8604 10.9164C17.0437 10.9164 17.2194 10.9508 17.3875 11.0196C17.5555 11.0883 17.7083 11.1914 17.8458 11.3289L18.6937 12.1768C18.816 12.3143 18.9114 12.4671 18.9802 12.6352C19.0489 12.8032 19.0833 12.9713 19.0833 13.1393C19.0833 13.3074 19.0528 13.4793 18.9916 13.655C18.9305 13.8307 18.8312 13.9873 18.6937 14.1248L13.9271 18.8914C13.8507 18.9678 13.7514 19.0328 13.6292 19.0862C13.5069 19.1397 13.3847 19.1664 13.2625 19.1664H11.75C11.4903 19.1664 11.2726 19.0786 11.0969 18.9029C10.9212 18.7272 10.8333 18.5095 10.8333 18.2498ZM16.8604 14.0331L17.7083 13.1393L16.8604 12.2914L15.9896 13.1623L16.8604 14.0331ZM7.16665 8.16643H13.5833C13.843 8.16643 14.0607 8.25428 14.2364 8.42997C14.4121 8.60567 14.5 8.82338 14.5 9.0831C14.5 9.34282 14.4121 9.56053 14.2364 9.73622C14.0607 9.91192 13.843 9.99977 13.5833 9.99977H7.16665C6.90693 9.99977 6.68922 9.91192 6.51353 9.73622C6.33783 9.56053 6.24998 9.34282 6.24998 9.0831C6.24998 8.82338 6.33783 8.60567 6.51353 8.42997C6.68922 8.25428 6.90693 8.16643 7.16665 8.16643ZM7.16665 5.41643H13.5833C13.843 5.41643 14.0607 5.50428 14.2364 5.67997C14.4121 5.85567 14.5 6.07338 14.5 6.3331C14.5 6.59282 14.4121 6.81053 14.2364 6.98622C14.0607 7.16192 13.843 7.24977 13.5833 7.24977H7.16665C6.90693 7.24977 6.68922 7.16192 6.51353 6.98622C6.33783 6.81053 6.24998 6.59282 6.24998 6.3331C6.24998 6.07338 6.33783 5.85567 6.51353 5.67997C6.68922 5.50428 6.90693 5.41643 7.16665 5.41643Z" fill="#FF0028"/>
</svg>
