<svg width="21" height="20" viewBox="0 0 21 20" fill="none" xmlns="http://www.w3.org/2000/svg">
<path d="M16.4858 19.4188C16.016 19.4188 15.6197 19.2574 15.297 18.9347C14.9742 18.6119 14.8129 18.2156 14.8129 17.7458V16.3708C13.6976 16.1875 12.7695 15.6597 12.0285 14.7873C11.2875 13.9149 10.917 12.8921 10.917 11.7188V6.8146C10.917 6.36429 11.0774 5.97289 11.398 5.64042C11.7186 5.30793 12.116 5.14168 12.59 5.14168H18.7087C19.159 5.14168 19.5504 5.30793 19.8829 5.64042C20.2154 5.97289 20.3816 6.36429 20.3816 6.8146V11.7188C20.3816 12.8983 20.0111 13.9188 19.2702 14.7805C18.5292 15.6421 17.6011 16.1722 16.4858 16.3708V17.7458H19.465V19.4188H16.4858ZM17.2624 10.8708H18.8233V6.70002H12.4754V9.03752H13.5983C14.0786 9.03752 14.5394 9.15292 14.9807 9.38372C15.4221 9.61452 15.7939 9.91926 16.0962 10.2979C16.2337 10.4965 16.403 10.6417 16.6041 10.7333C16.8052 10.825 17.0247 10.8708 17.2624 10.8708ZM6.10454 19.9229L4.43162 18.6625V14.9271H3.12537C2.65558 14.9271 2.25931 14.7657 1.93657 14.443C1.61382 14.1202 1.45245 13.724 1.45245 13.2542V5.55418H1.22328C0.994118 5.55418 0.799327 5.47397 0.63891 5.31356C0.478493 5.15314 0.398285 4.95748 0.398285 4.72657C0.398285 4.49566 0.478493 4.29705 0.63891 4.13074C0.799327 3.96442 0.994118 3.88127 1.22328 3.88127H4.43162V2.23127H3.78995C3.56079 2.23127 3.36217 2.15106 3.19412 1.99064C3.02606 1.83022 2.94204 1.63456 2.94204 1.40365C2.94204 1.17275 3.02606 0.974134 3.19412 0.80782C3.36217 0.641506 3.56079 0.55835 3.78995 0.55835H6.76912C6.99485 0.55835 7.18878 0.642461 7.35093 0.810685C7.51305 0.978908 7.59412 1.18038 7.59412 1.41511C7.59412 1.63838 7.51305 1.83022 7.35093 1.99064C7.18878 2.15106 6.99485 2.23127 6.76912 2.23127H6.10454V3.88127H9.31287C9.54509 3.88127 9.74447 3.96538 9.91099 4.1336C10.0775 4.30183 10.1608 4.5033 10.1608 4.73803C10.1608 4.9613 10.0775 5.15314 9.91099 5.31356C9.74447 5.47397 9.54509 5.55418 9.31287 5.55418H9.0837V13.2542C9.0837 13.724 8.92233 14.1202 8.59959 14.443C8.27684 14.7657 7.88058 14.9271 7.41079 14.9271H6.10454V19.9229ZM3.12537 13.2542H7.41079V11.65H5.57745C5.35134 11.65 5.15349 11.5709 4.98391 11.4127C4.81433 11.2544 4.72954 11.0596 4.72954 10.8283C4.72954 10.5969 4.81433 10.3972 4.98391 10.2292C5.15349 10.0611 5.35134 9.9771 5.57745 9.9771H7.41079V8.83127H5.57745C5.35134 8.83127 5.15349 8.75215 4.98391 8.59392C4.81433 8.43569 4.72954 8.2409 4.72954 8.00954C4.72954 7.77819 4.81433 7.57849 4.98391 7.41043C5.15349 7.24238 5.35134 7.15835 5.57745 7.15835H7.41079V5.55418H3.12537V13.2542Z" fill="#FF0028"/>
</svg>
