<svg width="24" height="24" viewBox="0 0 24 24" fill="none" xmlns="http://www.w3.org/2000/svg">
<mask id="mask0_242_422" style="mask-type:alpha" maskUnits="userSpaceOnUse" x="0" y="0" width="24" height="24">
<rect width="24" height="24" fill="#D9D9D9"/>
</mask>
<g mask="url(#mask0_242_422)">
<path d="M6.175 21.075V11.55H8.175C8.35833 11.55 8.54167 11.5708 8.725 11.6125C8.90833 11.6542 9.09167 11.7 9.275 11.75L14.7 13.8C15.2833 14.0167 15.7917 14.3417 16.225 14.775C16.6583 15.2083 16.875 15.725 16.875 16.325C16.875 16.4083 16.85 16.4833 16.8 16.55C16.75 16.6167 16.675 16.65 16.575 16.65H14.925C14.375 16.65 13.8333 16.6083 13.3 16.525C12.7667 16.4417 12.2417 16.3167 11.725 16.15L9.825 15.575L9.525 16.425L11.5 17.175C12.0833 17.3917 12.675 17.5208 13.275 17.5625C13.875 17.6042 14.4833 17.625 15.1 17.625H19.325C20.2083 17.625 20.9417 17.9667 21.525 18.65C22.1083 19.3333 22.4 20.1333 22.4 21.05L14.175 23.325L6.175 21.075ZM0.5 22.4V11.55H4.65V22.4H0.5ZM16.225 11.8L11.95 7.8C11.4333 7.33333 10.9958 6.80417 10.6375 6.2125C10.2792 5.62083 10.1 4.975 10.1 4.275C10.1 3.375 10.4208 2.60417 11.0625 1.9625C11.7042 1.32083 12.4833 1 13.4 1C13.9667 1 14.4833 1.14167 14.95 1.425C15.4167 1.70833 15.8417 2.05833 16.225 2.475C16.6083 2.05833 17.0375 1.70833 17.5125 1.425C17.9875 1.14167 18.5083 1 19.075 1C19.9917 1 20.7667 1.32083 21.4 1.9625C22.0333 2.60417 22.35 3.375 22.35 4.275C22.35 4.975 22.1667 5.62083 21.8 6.2125C21.4333 6.80417 21 7.33333 20.5 7.8L16.225 11.8Z" fill="#FF0028"/>
</g>
</svg>
